<svg width="0" height="0" class="hidden">
  <symbol fill="none" xmlns="http://www.w3.org/2000/svg" viewBox="0 0 24 24" id="tel">
    <path d="M8.38028 8.85335C9.07627 10.303 10.0251 11.6616 11.2266 12.8632C12.4282 14.0648 13.7869 15.0136 15.2365 15.7096C15.3612 15.7694 15.4235 15.7994 15.5024 15.8224C15.7828 15.9041 16.127 15.8454 16.3644 15.6754C16.4313 15.6275 16.4884 15.5704 16.6027 15.4561C16.9523 15.1064 17.1271 14.9316 17.3029 14.8174C17.9658 14.3864 18.8204 14.3864 19.4833 14.8174C19.6591 14.9316 19.8339 15.1064 20.1835 15.4561L20.3783 15.6509C20.9098 16.1824 21.1755 16.4481 21.3198 16.7335C21.6069 17.301 21.6069 17.9713 21.3198 18.5389C21.1755 18.8242 20.9098 19.09 20.3783 19.6214L20.2207 19.779C19.6911 20.3087 19.4263 20.5735 19.0662 20.7757C18.6667 21.0001 18.0462 21.1615 17.588 21.1601C17.1751 21.1589 16.8928 21.0788 16.3284 20.9186C13.295 20.0576 10.4326 18.4332 8.04466 16.0452C5.65668 13.6572 4.03221 10.7948 3.17124 7.76144C3.01103 7.19699 2.93092 6.91477 2.9297 6.50182C2.92833 6.0436 3.08969 5.42311 3.31411 5.0236C3.51636 4.66357 3.78117 4.39876 4.3108 3.86913L4.46843 3.7115C4.99987 3.18006 5.2656 2.91433 5.55098 2.76999C6.11854 2.48292 6.7888 2.48292 7.35636 2.76999C7.64174 2.91433 7.90747 3.18006 8.43891 3.7115L8.63378 3.90637C8.98338 4.25597 9.15819 4.43078 9.27247 4.60655C9.70347 5.26945 9.70347 6.12403 9.27247 6.78692C9.15819 6.96269 8.98338 7.1375 8.63378 7.4871C8.51947 7.60142 8.46231 7.65857 8.41447 7.72538C8.24446 7.96281 8.18576 8.30707 8.26748 8.58743C8.29048 8.66632 8.32041 8.72866 8.38028 8.85335Z" stroke="black" stroke-width="2" stroke-linecap="round" stroke-linejoin="round"></path>
  </symbol>
  <symbol fill="none" xmlns="http://www.w3.org/2000/svg" viewBox="0 0 24 24" id="search">
    <path d="M21 21L16.65 16.65M19 11C19 15.4183 15.4183 19 11 19C6.58172 19 3 15.4183 3 11C3 6.58172 6.58172 3 11 3C15.4183 3 19 6.58172 19 11Z" stroke="#161616" stroke-width="2" stroke-linecap="round" stroke-linejoin="round"></path>
  </symbol>
  <symbol fill="none" xmlns="http://www.w3.org/2000/svg" viewBox="0 0 24 24" id="search-dark">
    <path d="M21 21L16.65 16.65M19 11C19 15.4183 15.4183 19 11 19C6.58172 19 3 15.4183 3 11C3 6.58172 6.58172 3 11 3C15.4183 3 19 6.58172 19 11Z" stroke="white" stroke-width="2" stroke-linecap="round" stroke-linejoin="round"></path>
  </symbol>
  <symbol fill="none" xmlns="http://www.w3.org/2000/svg" viewBox="0 0 24 24" id="menu">
    <path d="M3 12H21M3 6H21M3 18H21" stroke="#161616" stroke-width="2" stroke-linecap="round" stroke-linejoin="round"></path>
  </symbol>
  <symbol fill="none" xmlns="http://www.w3.org/2000/svg" viewBox="0 0 24 24" id="mark">
    <path d="M20 12C20 16.4183 16.4183 20 12 20M20 12C20 7.58172 16.4183 4 12 4M20 12H22M12 20C7.58172 20 4 16.4183 4 12M12 20V22M12 4C7.58172 4 4 7.58172 4 12M12 4V2M4 12H2M15 12C15 13.6569 13.6569 15 12 15C10.3431 15 9 13.6569 9 12C9 10.3431 10.3431 9 12 9C13.6569 9 15 10.3431 15 12Z" stroke="#9E9E9E" stroke-width="2" stroke-linecap="round" stroke-linejoin="round"></path>
  </symbol>
  <symbol fill="none" xmlns="http://www.w3.org/2000/svg" viewBox="0 0 24 24" id="mail">
    <path d="M2 7L10.1649 12.7154C10.8261 13.1783 11.1567 13.4097 11.5163 13.4993C11.8339 13.5785 12.1661 13.5785 12.4837 13.4993C12.8433 13.4097 13.1739 13.1783 13.8351 12.7154L22 7M6.8 20H17.2C18.8802 20 19.7202 20 20.362 19.673C20.9265 19.3854 21.3854 18.9265 21.673 18.362C22 17.7202 22 16.8802 22 15.2V8.8C22 7.11984 22 6.27976 21.673 5.63803C21.3854 5.07354 20.9265 4.6146 20.362 4.32698C19.7202 4 18.8802 4 17.2 4H6.8C5.11984 4 4.27976 4 3.63803 4.32698C3.07354 4.6146 2.6146 5.07354 2.32698 5.63803C2 6.27976 2 7.11984 2 8.8V15.2C2 16.8802 2 17.7202 2.32698 18.362C2.6146 18.9265 3.07354 19.3854 3.63803 19.673C4.27976 20 5.11984 20 6.8 20Z" stroke="#161616" stroke-width="2" stroke-linecap="round" stroke-linejoin="round"></path>
  </symbol>
  <symbol fill="none" xmlns="http://www.w3.org/2000/svg" viewBox="0 0 16 16" id="home">
    <path d="M6 14.4888V9.55544C6 9.18204 6 8.99537 6.07266 8.85277C6.13658 8.7273 6.23857 8.62537 6.36401 8.56144C6.50661 8.48877 6.69327 8.48877 7.06667 8.48877H8.93333C9.30673 8.48877 9.4934 8.48877 9.636 8.56144C9.76147 8.62537 9.8634 8.7273 9.92733 8.85277C10 8.99537 10 9.18204 10 9.55544V14.4888M7.34513 2.33144L2.82359 5.84818C2.52135 6.08327 2.37023 6.20081 2.26135 6.34801C2.16491 6.4784 2.09307 6.62529 2.04935 6.78147C2 6.95778 2 7.14924 2 7.53217V12.3554C2 13.1022 2 13.4755 2.14533 13.7608C2.27315 14.0116 2.47713 14.2156 2.72801 14.3434C3.01323 14.4888 3.38659 14.4888 4.13333 14.4888H11.8667C12.6134 14.4888 12.9868 14.4888 13.272 14.3434C13.5229 14.2156 13.7269 14.0116 13.8547 13.7608C14 13.4755 14 13.1022 14 12.3554V7.53217C14 7.14924 14 6.95778 13.9507 6.78147C13.9069 6.62529 13.8351 6.4784 13.7387 6.34801C13.6298 6.20081 13.4787 6.08327 13.1764 5.84819L8.65487 2.33144C8.42067 2.14927 8.30353 2.05818 8.1742 2.02317C8.06013 1.99228 7.93987 1.99228 7.8258 2.02317C7.69647 2.05818 7.57933 2.14927 7.34513 2.33144Z" stroke="#161616" stroke-linecap="round" stroke-linejoin="round"></path>
  </symbol>
  <symbol fill="none" xmlns="http://www.w3.org/2000/svg" viewBox="0 0 24 24" id="globe">
    <path d="M2 12H22M2 12C2 17.5228 6.47715 22 12 22M2 12C2 6.47715 6.47715 2 12 2M22 12C22 17.5228 17.5228 22 12 22M22 12C22 6.47715 17.5228 2 12 2M12 22C14.5013 19.2616 15.9228 15.708 16 12C15.9228 8.29203 14.5013 4.73835 12 2M12 22C9.49872 19.2616 8.07725 15.708 8 12C8.07725 8.29203 9.49872 4.73835 12 2" stroke="#161616" stroke-width="2" stroke-linecap="round" stroke-linejoin="round"></path>
  </symbol>
  <symbol fill="none" xmlns="http://www.w3.org/2000/svg" viewBox="0 0 24 24" id="fax">
    <path d="M14 2.26953V6.40007C14 6.96012 14 7.24015 14.109 7.45406C14.2049 7.64222 14.3578 7.7952 14.546 7.89108C14.7599 8.00007 15.0399 8.00007 15.6 8.00007H19.7305M14 17H8M16 13H8M20 9.98822V17.2C20 18.8802 20 19.7202 19.673 20.362C19.3854 20.9265 18.9265 21.3854 18.362 21.673C17.7202 22 16.8802 22 15.2 22H8.8C7.11984 22 6.27976 22 5.63803 21.673C5.07354 21.3854 4.6146 20.9265 4.32698 20.362C4 19.7202 4 18.8802 4 17.2V6.8C4 5.11984 4 4.27976 4.32698 3.63803C4.6146 3.07354 5.07354 2.6146 5.63803 2.32698C6.27976 2 7.11984 2 8.8 2H12.0118C12.7455 2 13.1124 2 13.4577 2.08289C13.7638 2.15638 14.0564 2.27759 14.3249 2.44208C14.6276 2.6276 14.887 2.88703 15.4059 3.40589L18.5941 6.59411C19.113 7.11297 19.3724 7.3724 19.5579 7.67515C19.7224 7.94356 19.8436 8.2362 19.9171 8.5423C20 8.88757 20 9.25445 20 9.98822Z" stroke="black" stroke-width="2" stroke-linecap="round" stroke-linejoin="round"></path>
  </symbol>
  <symbol fill="none" xmlns="http://www.w3.org/2000/svg" viewBox="0 0 24 24" id="download">
    <path d="M21 21H3M18 11L12 17M12 17L6 11M12 17V3" stroke="#161616" stroke-width="2" stroke-linecap="round" stroke-linejoin="round"></path>
  </symbol>
  <symbol fill="none" xmlns="http://www.w3.org/2000/svg" viewBox="0 0 24 24" id="chevron-top">
    <path d="M6 15L12 9L18 15" stroke="#161616" stroke-width="2" stroke-linecap="round" stroke-linejoin="round"></path>
  </symbol>
  <symbol fill="none" xmlns="http://www.w3.org/2000/svg" viewBox="0 0 24 24" id="chevron-right">
    <path d="M9 6L15 12L9 18" stroke="#161616" stroke-width="2" stroke-linecap="round" stroke-linejoin="round"></path>
  </symbol>
  <symbol fill="none" xmlns="http://www.w3.org/2000/svg" viewBox="0 0 24 24" id="chevron-left">
    <path d="M15 6L9 12L15 18" stroke="#161616" stroke-width="2" stroke-linecap="round" stroke-linejoin="round"></path>
  </symbol>
  <symbol fill="none" xmlns="http://www.w3.org/2000/svg" viewBox="0 0 24 24" id="chevron-down">
    <path d="M6 9L12 15L18 9" stroke="#161616" stroke-width="2" stroke-linecap="round" stroke-linejoin="round"></path>
  </symbol>
  <symbol fill="none" xmlns="http://www.w3.org/2000/svg" viewBox="0 0 24 24" id="arrow_up">
    <path d="M12 19V5M12 5L5 12M12 5L19 12" stroke="white" stroke-width="2" stroke-linecap="round" stroke-linejoin="round"></path>
  </symbol>
  <symbol fill="none" xmlns="http://www.w3.org/2000/svg" viewBox="0 0 24 24" id="arrow_right">
    <path d="M5 12L19 12M19 12L12 5M19 12L12 19" stroke="white" stroke-width="2" stroke-linecap="round" stroke-linejoin="round"></path>
  </symbol>
  <symbol fill="none" xmlns="http://www.w3.org/2000/svg" viewBox="0 0 24 24" id="arrow_right_dark">
    <path d="M5 12L19 12M19 12L12 5M19 12L12 19" stroke="#161616" stroke-width="2" stroke-linecap="round" stroke-linejoin="round"></path>
  </symbol>
  <symbol fill="none" xmlns="http://www.w3.org/2000/svg" viewBox="0 0 24 24" id="arrow_left">
    <path d="M19 12L5 12M5 12L12 5M5 12L12 19" stroke="#161616" stroke-width="2" stroke-linecap="round" stroke-linejoin="round"></path>
  </symbol>
</svg>